<svg xmlns="http://www.w3.org/2000/svg" width="74.001" height="59.698" viewBox="0 0 74.001 59.698">
  <g id="logo" transform="translate(-140 -26)">
    <path id="Caminho_2" data-name="Caminho 2" d="M2.318-30.888H7.291a9.542,9.542,0,0,1,4.01.69,4.056,4.056,0,0,1,2.07,2.109,9.643,9.643,0,0,1,.612,3.762v7.681a10.32,10.32,0,0,1-.612,3.88,4.267,4.267,0,0,1-2.044,2.226,8.5,8.5,0,0,1-3.88.742H2.318ZM7.343-12.479a3.048,3.048,0,0,0,1.849-.443,1.983,1.983,0,0,0,.729-1.237,13.172,13.172,0,0,0,.156-2.356v-8.072a9.4,9.4,0,0,0-.182-2.135A1.672,1.672,0,0,0,9.127-27.8a3.686,3.686,0,0,0-1.836-.352H6.145v15.674Zm15.05,2.968q-3.281,0-4.687-1.758A8.087,8.087,0,0,1,16.3-16.411v-7.915A7.869,7.869,0,0,1,17.706-29.4q1.406-1.718,4.687-1.718,3.255,0,4.661,1.718a7.869,7.869,0,0,1,1.406,5.077v7.915a8.043,8.043,0,0,1-1.419,5.129Q25.621-9.511,22.393-9.511Zm0-2.838a1.781,1.781,0,0,0,1.718-.807,4.972,4.972,0,0,0,.443-2.343v-9.712a4.933,4.933,0,0,0-.43-2.317,1.8,1.8,0,0,0-1.731-.781,1.817,1.817,0,0,0-1.744.794,4.821,4.821,0,0,0-.443,2.3V-15.5a4.972,4.972,0,0,0,.443,2.343A1.807,1.807,0,0,0,22.393-12.349Zm9.035-18.539h3.984l2.994,14.607,3.1-14.607h3.88L45.774-9.8H42.91L42.6-24.456,39.6-9.8H37.286L34.24-24.509,33.953-9.8h-2.89ZM54.5-9.511a6.631,6.631,0,0,1-3.593-.833,4.395,4.395,0,0,1-1.823-2.369,12.359,12.359,0,0,1-.521-3.906V-30.888H52.31v14.711a7.29,7.29,0,0,0,.43,2.812,1.717,1.717,0,0,0,1.758.989,1.739,1.739,0,0,0,1.784-.989,7.29,7.29,0,0,0,.43-2.812V-30.888h3.723v14.268a12.384,12.384,0,0,1-.521,3.893,4.393,4.393,0,0,1-1.823,2.382A6.631,6.631,0,0,1,54.5-9.511Zm14.086,0A5.4,5.4,0,0,1,64.3-11.125a7.6,7.6,0,0,1-1.549-4.817l3.307-.651a7.293,7.293,0,0,0,.638,3.059,1.858,1.858,0,0,0,1.758,1.055,1.587,1.587,0,0,0,1.315-.534,2.24,2.24,0,0,0,.43-1.445,3.848,3.848,0,0,0-.56-2.122,9.436,9.436,0,0,0-1.758-1.914l-2.656-2.317a7.381,7.381,0,0,1-1.836-2.239,6.227,6.227,0,0,1-.612-2.864,5.032,5.032,0,0,1,1.445-3.84,5.583,5.583,0,0,1,4-1.367,4.625,4.625,0,0,1,3.919,1.549A7.614,7.614,0,0,1,73.5-25.394l-3.307.573a7.219,7.219,0,0,0-.482-2.591,1.564,1.564,0,0,0-1.575-.872,1.605,1.605,0,0,0-1.3.56,2.135,2.135,0,0,0-.469,1.419,3.329,3.329,0,0,0,.4,1.705,6.1,6.1,0,0,0,1.315,1.471l2.63,2.317a10.513,10.513,0,0,1,2.317,2.734,6.7,6.7,0,0,1,.833,3.385,5.344,5.344,0,0,1-.664,2.682,4.734,4.734,0,0,1-1.862,1.836A5.6,5.6,0,0,1,68.583-9.511Z" transform="translate(139.27 74.168)" fill="#343434"/>
    <path id="Caminho_1" data-name="Caminho 1" d="M37,0,74,14.389H0Z" transform="translate(140 26)" fill="#ff2323"/>
    <path id="Caminho_3" data-name="Caminho 3" d="M0,0H74V4.111H0Z" transform="translate(140 67.111)" fill="#343434"/>
    <path id="Caminho_4" data-name="Caminho 4" d="M.966-12.424H2.031v7.77H.966Zm5.372,0H7.4l1.372,6.3,1.381-6.3h1.055l.144,7.77h-.873l-.086-5.64L9.081-4.654H8.467l-1.3-5.64-.086,5.64H6.194ZM17.456-4.568a1.929,1.929,0,0,1-1.636-.648,3.048,3.048,0,0,1-.494-1.875v-2.945a2.884,2.884,0,0,1,.5-1.832,1.967,1.967,0,0,1,1.631-.624,1.945,1.945,0,0,1,1.626.628,2.907,2.907,0,0,1,.494,1.827v2.955a3.012,3.012,0,0,1-.5,1.861A1.912,1.912,0,0,1,17.456-4.568Zm0-.854a.869.869,0,0,0,.815-.355,2.152,2.152,0,0,0,.211-1.074v-3.405a2.043,2.043,0,0,0-.211-1.05.884.884,0,0,0-.815-.341.9.9,0,0,0-.825.341,2.043,2.043,0,0,0-.211,1.05v3.405a2.152,2.152,0,0,0,.211,1.074A.88.88,0,0,0,17.456-5.422Zm6.111-7h1.784a2.226,2.226,0,0,1,1.564.475,1.926,1.926,0,0,1,.508,1.472q0,1.487-1.113,1.64a1.571,1.571,0,0,1,1.007.648,2.389,2.389,0,0,1,.317,1.319,2.453,2.453,0,0,1-.494,1.631,1.855,1.855,0,0,1-1.5.585H23.566Zm1.727,3.242a1.2,1.2,0,0,0,.93-.293,1.515,1.515,0,0,0,.259-1,1.435,1.435,0,0,0-.158-.763.715.715,0,0,0-.475-.312,4.883,4.883,0,0,0-.94-.067H24.65v2.437Zm.086,3.751a1.53,1.53,0,0,0,.743-.149.8.8,0,0,0,.369-.456A2.65,2.65,0,0,0,26.6-6.87a1.72,1.72,0,0,0-.307-1.118,1.227,1.227,0,0,0-1-.369H24.65v2.926Zm6.2-6.993h1.065v7.77H31.576Zm5.247,0h1.084v6.993h1.986v.777h-3.07Zm6.792,0H44.68v7.77H43.615Zm6.475,0h1.046l1.66,7.77H51.769l-.355-1.957H49.831l-.374,1.957H48.44Zm1.18,5.036-.652-3.5-.643,3.5Zm-.355-7.4h1.026l-1.074,1.9h-.518Zm5.593,2.36h1.564a2.58,2.58,0,0,1,1.731.484,2,2,0,0,1,.552,1.578q0,1.5-.959,1.813l1.1,3.895H59.453L58.436-8.3h-.844v3.645H56.508ZM58-9.076a1.462,1.462,0,0,0,1-.278,1.339,1.339,0,0,0,.3-1.007,2.155,2.155,0,0,0-.106-.753.722.722,0,0,0-.374-.4,1.785,1.785,0,0,0-.758-.13h-.48v2.571Zm6.465-3.348h1.065v7.77H64.469Zm6.475,0H71.99l1.66,7.77H72.623l-.355-1.957H70.686l-.374,1.957H69.295Zm1.18,5.036-.652-3.5-.643,3.5Z" transform="translate(139.696 90.266)" fill="#313131" opacity="0.4"/>
  </g>
</svg>
