<svg xmlns="http://www.w3.org/2000/svg" width="108" height="87.126" viewBox="0 0 108 87.126">
  <g id="logo-branco" transform="translate(-140 -26)">
    <path id="Caminho_65" data-name="Caminho 65" d="M2.318,0H9.8c7.22,0,9.538-3.23,9.538-9.994V-21.2c0-6.574-2.28-9.576-9.766-9.576H2.318ZM7.9-3.914V-26.79H9.576c3.686,0,4.066,1.52,4.066,5.206V-9.8c0,3.838-.152,5.89-3.99,5.89ZM31.616.418c6.574,0,8.854-3.876,8.854-10.07V-21.2c0-6.232-2.28-9.918-8.854-9.918-6.612,0-8.892,3.686-8.892,9.918V-9.652C22.724-3.42,24.966.418,31.616.418Zm0-4.142c-2.774,0-3.192-2.052-3.192-4.6V-22.5c0-2.584.456-4.522,3.192-4.522S34.77-25.08,34.77-22.5V-8.322C34.77-5.776,34.352-3.724,31.616-3.724ZM44.27,0h4.218l.418-21.47L53.352,0h3.382L61.1-21.394,61.56,0h4.18l-.57-30.78H59.508L54.986-9.462,50.616-30.78H44.8Zm34.2.418c6.878,0,8.664-3.914,8.664-10.374V-30.78H81.7V-9.31c0,2.926-.342,5.548-3.23,5.548-2.85,0-3.192-2.622-3.192-5.548V-30.78H69.806V-9.956C69.806-3.5,71.554.418,78.47.418Zm20.558,0c4.6,0,7.714-3.116,7.714-7.562,0-4.066-2.09-6.764-4.6-8.93l-3.838-3.382C96.672-20.862,95.8-22,95.8-24.092a2.581,2.581,0,0,1,2.584-2.888c2.47,0,2.888,2.166,3,5.054l4.826-.836c-.3-4.484-1.938-8.36-7.714-8.36-4.9,0-7.942,2.736-7.942,7.6a9.085,9.085,0,0,0,3.572,7.448L98-12.692c2.014,1.748,3.382,3.23,3.382,5.89,0,1.672-.76,2.888-2.546,2.888-2.47,0-3.344-2.356-3.5-6l-4.826.95C90.744-2.85,93.4.418,99.028.418Z" transform="translate(140 82)" fill="#fff"/>
    <path id="Caminho_66" data-name="Caminho 66" d="M54,0l54,21H0Z" transform="translate(140 26)" fill="#fff"/>
    <path id="Caminho_64" data-name="Caminho 64" d="M0,0H108V6H0Z" transform="translate(140 86)" fill="#fff"/>
    <path id="Caminho_63" data-name="Caminho 63" d="M.966-11.34H2.52V0H.966Zm7.84,0H10.36l2,9.2,2.016-9.2h1.54L16.128,0H14.854l-.126-8.232L12.81,0h-.9l-1.9-8.232L9.884,0H8.6ZM25.032.126a2.815,2.815,0,0,1-2.387-.945,4.449,4.449,0,0,1-.721-2.737v-4.3a4.208,4.208,0,0,1,.728-2.674,2.871,2.871,0,0,1,2.38-.91,2.839,2.839,0,0,1,2.373.917,4.243,4.243,0,0,1,.721,2.667v4.312A4.4,4.4,0,0,1,27.4-.826,2.791,2.791,0,0,1,25.032.126Zm0-1.246a1.269,1.269,0,0,0,1.19-.518,3.141,3.141,0,0,0,.308-1.568v-4.97a2.982,2.982,0,0,0-.308-1.533,1.29,1.29,0,0,0-1.19-.5,1.306,1.306,0,0,0-1.2.5,2.982,2.982,0,0,0-.308,1.533v4.97a3.141,3.141,0,0,0,.308,1.568A1.284,1.284,0,0,0,25.032-1.12ZM33.95-11.34h2.6a3.248,3.248,0,0,1,2.282.693A2.81,2.81,0,0,1,39.578-8.5q0,2.17-1.624,2.394a2.293,2.293,0,0,1,1.47.945,3.486,3.486,0,0,1,.462,1.925,3.58,3.58,0,0,1-.721,2.38A2.707,2.707,0,0,1,36.974,0H33.95Zm2.52,4.732a1.758,1.758,0,0,0,1.358-.427A2.212,2.212,0,0,0,38.206-8.5a2.1,2.1,0,0,0-.231-1.113,1.043,1.043,0,0,0-.693-.455,7.126,7.126,0,0,0-1.372-.1h-.378v3.556ZM36.6-1.134a2.233,2.233,0,0,0,1.085-.217,1.168,1.168,0,0,0,.539-.665,3.868,3.868,0,0,0,.154-1.218,2.51,2.51,0,0,0-.448-1.631A1.791,1.791,0,0,0,36.47-5.4h-.938v4.27ZM45.64-11.34h1.554V0H45.64Zm7.658,0H54.88V-1.134h2.9V0H53.3Zm9.912,0h1.554V0H63.21Zm9.45,0h1.526L76.608,0h-1.5l-.518-2.856h-2.31L71.736,0H70.252Zm1.722,7.35L73.43-9.1l-.938,5.11Zm-.518-10.794h1.5l-1.568,2.772h-.756Zm8.162,3.444h2.282a3.766,3.766,0,0,1,2.527.707,2.922,2.922,0,0,1,.805,2.3q0,2.184-1.4,2.646L87.85,0H86.324L84.84-5.32H83.608V0H82.026ZM84.21-6.454a2.133,2.133,0,0,0,1.463-.406,1.955,1.955,0,0,0,.441-1.47,3.145,3.145,0,0,0-.154-1.1,1.054,1.054,0,0,0-.546-.588,2.606,2.606,0,0,0-1.106-.189h-.7v3.752Zm9.436-4.886H95.2V0H93.646Zm9.45,0h1.526L107.044,0h-1.5l-.518-2.856h-2.31L102.172,0h-1.484Zm1.722,7.35-.952-5.11-.938,5.11Z" transform="translate(140 113)" fill="#fff" opacity="0.4"/>
  </g>
</svg>
